<?xml version="1.0" encoding="UTF-8" standalone="no"?>
<!-- Created with Inkscape (http://www.inkscape.org/) -->

<svg
   width="346.83853mm"
   height="244.9688mm"
   viewBox="0 0 346.83853 244.9688"
   version="1.1"
   id="svg1"
   xml:space="preserve"
   xmlns="http://www.w3.org/2000/svg"
   xmlns:svg="http://www.w3.org/2000/svg"><defs
     id="defs1" /><g
     id="layer1"
     transform="translate(397.51505,-201.20854)"><g
       id="g9"
       style="stroke:#000000;stroke-width:10;stroke-dasharray:none;stroke-opacity:1"><path
         style="fill:#000000;stroke:#000000;stroke-width:10;stroke-dasharray:none;stroke-opacity:1"
         d="m -159.73028,441.09387 c -0.0399,-0.0399 -1.34737,-0.13041 -2.90546,-0.20112 -3.87032,-0.17562 -5.80625,-0.37999 -5.97302,-0.63054 -0.0771,-0.11587 -0.62666,-0.22771 -1.2212,-0.24854 -0.59455,-0.0208 -1.59178,-0.21809 -2.21608,-0.43836 -0.6243,-0.22026 -1.62614,-0.40191 -2.22631,-0.40367 -0.67253,-0.002 -1.53267,-0.25555 -2.24179,-0.66094 -0.63282,-0.36176 -1.24441,-0.59977 -1.35908,-0.52889 -0.11468,0.0709 -0.35564,-0.0484 -0.53547,-0.2651 -0.17982,-0.21668 -0.5505,-0.39396 -0.82373,-0.39396 -0.27322,0 -0.49677,-0.11906 -0.49677,-0.26459 0,-0.14552 -0.22354,-0.26458 -0.49677,-0.26458 -0.27322,0 -0.63339,-0.16462 -0.80038,-0.36583 -0.16698,-0.2012 -1.13567,-0.63337 -2.15263,-0.96037 -1.47772,-0.47515 -1.88064,-0.72048 -2.00643,-1.22167 -0.0866,-0.34492 -0.31506,-0.62713 -0.50776,-0.62713 -0.1927,0 -0.42649,-0.23985 -0.51954,-0.53301 -0.093,-0.29315 -0.29805,-0.45335 -0.45558,-0.35599 -0.16435,0.10157 -0.21063,0.0544 -0.1086,-0.1107 0.16076,-0.26012 -1.31953,-1.90655 -1.7168,-1.90949 -0.53881,-0.004 -7.20366,-7.40405 -8.67089,-9.62738 -0.20337,-0.30817 -0.59032,-0.88291 -0.8599,-1.2772 -0.26957,-0.39429 -0.49013,-0.96834 -0.49013,-1.27567 0,-0.30732 -0.17017,-0.72894 -0.37816,-0.93693 -0.20798,-0.20798 -0.51091,-1.06268 -0.67317,-1.89933 -0.16226,-0.83665 -0.42857,-1.81883 -0.59179,-2.18263 -0.43669,-0.97333 -0.55478,-1.51366 -1.38782,-6.35 -0.71359,-4.14286 -0.43143,-10.86517 0.53444,-12.73296 0.21861,-0.42274 0.45212,-1.30877 0.51893,-1.96896 0.0668,-0.66019 0.23736,-1.41691 0.37902,-1.68161 0.14166,-0.26469 0.37107,-0.94317 0.5098,-1.50772 0.13873,-0.56456 0.60702,-1.9492 1.04064,-3.07698 0.43362,-1.12779 0.73646,-2.05052 0.67298,-2.05052 -0.0635,0 0.34718,-0.68461 0.91258,-1.52136 0.5654,-0.83674 1.07734,-1.67466 1.13765,-1.86204 0.31587,-0.98132 5.78788,-6.81631 8.83162,-9.41743 0.87166,-0.74491 1.7051,-1.48544 1.85208,-1.64563 0.14698,-0.16019 0.74349,-0.63218 1.32557,-1.04888 0.58209,-0.4167 1.55077,-1.19831 2.15263,-1.7369 1.5785,-1.41257 3.05315,-2.28297 4.22902,-2.49612 0.56468,-0.10237 1.38387,-0.36745 1.82044,-0.58908 0.43656,-0.22163 1.68671,-0.72522 2.77812,-1.11909 1.09141,-0.39387 2.81781,-1.09727 3.83646,-1.56311 1.01864,-0.46584 2.2688,-1.03357 2.77812,-1.26162 0.50933,-0.22805 1.39489,-0.6371 1.96793,-0.90899 0.57304,-0.27188 1.20456,-0.49434 1.40339,-0.49434 0.19883,0 1.41837,-0.29715 2.71009,-0.66033 1.29171,-0.36318 3.27956,-0.7038 4.41744,-0.75694 2.06073,-0.0962 6.11525,-0.76845 7.62512,-1.2642 0.43656,-0.14334 2.2225,-0.32668 3.96875,-0.40741 2.25347,-0.10418 3.75095,-0.32665 5.15937,-0.76648 1.09141,-0.34083 2.87734,-0.8572 3.96875,-1.1475 1.09141,-0.29029 3.175,-0.95395 4.63021,-1.47479 1.45521,-0.52084 3.5388,-1.25637 4.63021,-1.6345 2.74497,-0.95104 4.10533,-1.67587 5.95312,-3.17197 2.17368,-1.75995 5.32243,-5.03375 5.79396,-6.02405 0.21363,-0.44868 0.73648,-1.17298 1.16188,-1.60954 0.42539,-0.43656 0.99889,-1.19625 1.27443,-1.6882 0.91338,-1.63074 1.09862,-1.92568 1.39638,-2.22345 0.16237,-0.16237 0.29523,-0.50954 0.29523,-0.77147 0,-0.26194 0.11906,-0.47625 0.26458,-0.47625 0.14552,0 0.26723,-0.20836 0.27046,-0.46302 0.003,-0.25467 0.23872,-0.76068 0.52329,-1.12448 0.28457,-0.36381 0.52004,-0.81604 0.52328,-1.00497 0.003,-0.18893 0.26189,-0.84378 0.57478,-1.45521 0.3129,-0.61143 0.65954,-1.82607 0.7703,-2.6992 1.01778,-8.02243 0.96348,-13.41901 -0.15971,-15.87455 -0.35834,-0.78343 -0.7701,-1.73627 -0.91502,-2.11742 -0.14491,-0.38115 -0.3814,-0.62012 -0.52552,-0.53104 -0.14646,0.0905 -0.19724,-0.007 -0.11513,-0.22093 0.27068,-0.70537 -0.42366,-2.5256 -1.41751,-3.71608 -0.54144,-0.64855 -1.12266,-1.24014 -1.29162,-1.31464 -0.46757,-0.20618 -4.50951,0.56173 -5.54629,1.05372 -1.36291,0.64674 -3.85467,0.37656 -5.8213,-0.63122 -0.85491,-0.43809 -1.94134,-0.94369 -2.41428,-1.12355 -0.47294,-0.17987 -0.8599,-0.4184 -0.8599,-0.53007 0,-0.11167 -0.41672,-0.28121 -0.92604,-0.37676 -0.50932,-0.0956 -0.92604,-0.29034 -0.92604,-0.43287 0,-0.14253 -0.30008,-0.37324 -0.66685,-0.51268 -0.36677,-0.13945 -1.32243,-0.7485 -2.12368,-1.35346 -0.80126,-0.60495 -1.52884,-1.0279 -1.61685,-0.93989 -0.15076,0.15076 -2.24082,-1.69655 -4.31728,-3.81584 -2.11483,-2.15845 -5.51904,-6.4709 -6.81946,-8.63888 -0.7639,-1.27353 -1.76086,-2.89059 -2.21546,-3.59347 -0.4546,-0.70288 -0.92468,-1.65538 -1.04464,-2.11667 -0.31298,-1.2036 -2.04392,-6.36828 -2.78791,-8.31842 -0.34808,-0.91239 -0.63709,-1.92442 -0.64225,-2.24896 -0.005,-0.32454 -0.17953,-0.88773 -0.38749,-1.25153 -0.20797,-0.3638 -0.38235,-0.96507 -0.3875,-1.33615 -0.005,-0.37107 -0.10672,-0.78779 -0.22568,-0.92604 -0.51022,-0.59292 -1.75743,-7.36734 -1.75117,-9.51177 0.006,-2.19974 0.36133,-5.87574 0.68932,-7.13955 0.15046,-0.57977 0.30755,-1.41321 0.34908,-1.85208 0.27191,-2.87361 3.19413,-9.20074 5.45441,-11.80981 1.31844,-1.5219 4.50453,-4.01851 5.26424,-4.12505 2.45902,-0.34486 5.25174,-0.83964 5.6224,-0.99612 0.28694,-0.12113 0.46302,-0.0789 0.46302,0.11093 0,0.23072 1.22694,0.93167 1.91697,1.09516 1.48385,0.35156 3.69926,0.84522 4.30074,0.95832 0.43656,0.0821 0.88896,0.31182 1.00533,0.5105 0.11637,0.19868 0.3709,0.36124 0.56563,0.36124 0.19472,0 0.96856,0.42272 1.71966,0.93938 0.75109,0.51666 1.56812,1.02268 1.81562,1.12448 0.78439,0.32264 3.97179,3.85871 4.16164,4.61687 0.1002,0.40018 0.29537,0.72761 0.43371,0.72761 0.13833,0 0.18301,0.11083 0.0993,0.2463 -0.0837,0.13546 -0.02,0.32804 0.14168,0.42794 0.16165,0.0999 0.64538,0.96502 1.07496,1.92248 0.42959,0.95746 0.95179,2.10433 1.16046,2.54862 0.20867,0.44428 0.42098,1.04591 0.47181,1.33695 0.0508,0.29104 0.32104,0.92518 0.60047,1.40919 0.53175,0.92104 2.562,3.68297 4.14609,5.64029 0.25466,0.31466 0.46302,0.66264 0.46302,0.7733 0,0.3902 2.51944,2.62203 2.96341,2.62513 0.24743,0.002 0.55452,0.19012 0.68242,0.41867 0.16442,0.2938 0.53648,0.39069 1.26992,0.33073 1.01749,-0.0832 1.03894,-0.10656 1.11924,-1.21978 0.045,-0.62423 -0.11729,-1.81486 -0.3607,-2.64583 -0.24342,-0.83098 -0.44038,-2.28478 -0.4377,-3.23066 0.005,-1.76689 -0.43133,-3.5186 -1.30176,-5.2259 -0.27239,-0.53427 -0.49525,-1.16451 -0.49525,-1.40053 0,-0.23602 -0.0848,-0.51392 -0.18843,-0.61755 -0.1953,-0.19531 -0.24482,-1.06419 -0.32255,-5.65982 -0.0438,-2.59001 -0.0112,-2.76572 0.69553,-3.74966 1.82149,-2.53592 2.94175,-3.72451 4.04878,-4.29573 0.65485,-0.33789 1.48829,-0.80553 1.85209,-1.03918 0.3638,-0.23366 1.13771,-0.49783 1.719788,-0.58705 0.582084,-0.0892 1.534584,-0.24524 2.116667,-0.34671 2.083478,-0.36319 3.916817,-0.16031 6.317333,0.69907 2.278545,0.81572 4.606793,2.21553 5.493356,3.30276 0.238484,0.29247 0.714734,0.85603 1.058333,1.25236 1.088799,1.25589 1.815352,2.26528 1.815352,2.52204 0,0.1367 0.531597,0.83224 1.181325,1.54566 0.649729,0.71341 1.327346,1.6543 1.505817,2.09086 0.178471,0.43657 0.475367,0.8862 0.659769,0.99919 0.184403,0.11299 0.273844,0.36553 0.198759,0.5612 -0.07508,0.19567 0.03513,0.5274 0.244912,0.73719 0.209786,0.20979 0.621766,0.85022 0.915509,1.42318 0.293743,0.57296 0.843322,1.33039 1.221286,1.68318 0.377963,0.35279 0.687207,0.736 0.687207,0.85159 0,0.20129 2.087551,3.39259 2.398297,3.66635 0.08259,0.0728 0.515405,0.66807 0.961806,1.32292 0.4464,0.65484 1.06362,1.41743 1.3716,1.69465 0.30798,0.27721 0.559963,0.66578 0.559963,0.86348 0,0.19771 0.110532,0.56621 0.245628,0.81889 0.135095,0.25269 0.502584,1.02432 0.816642,1.71474 0.314058,0.69042 0.680654,1.32306 0.814658,1.40588 0.590916,0.36521 3.150155,6.73826 3.150155,7.84456 0,0.27009 0.178594,0.5596 0.396875,0.64337 0.218281,0.0838 0.396875,0.32406 0.396875,0.534 0,0.20994 0.186211,0.7418 0.413801,1.18191 0.383302,0.74122 0.891983,2.41717 1.83617,6.04962 0.207602,0.79867 0.500661,1.4932 0.651243,1.5434 0.150582,0.0502 0.273786,0.20743 0.273786,0.34941 0,0.14198 -0.127852,0.17913 -0.284116,0.0826 -0.202018,-0.12486 -0.20258,-0.0338 -0.0019,0.31511 0.605976,1.05382 1.142842,2.95954 1.368088,4.85633 0.129606,1.09141 0.359515,2.26583 0.51091,2.60983 0.151394,0.34399 0.331539,1.34922 0.400322,2.23385 0.06878,0.88462 0.273516,1.70268 0.454963,1.8179 0.181447,0.11522 0.258423,0.21131 0.171059,0.21354 -0.08736,0.002 -0.0043,0.86725 0.184519,1.92228 0.188849,1.05503 0.349626,2.4908 0.357282,3.19062 0.0077,0.69981 0.103215,1.21845 0.212356,1.15253 0.10914,-0.0659 0.217544,0.63711 0.240897,1.56228 0.02335,0.92518 0.170749,2.07342 0.327547,2.55164 0.156798,0.47822 0.358582,2.17918 0.44841,3.77991 0.08983,1.60073 0.287295,3.06269 0.438816,3.24881 0.171459,0.21061 0.216481,1.17459 0.119224,2.55274 -0.126392,1.79098 -0.0695,2.38453 0.297577,3.10453 0.275288,0.53996 0.485622,1.66852 0.534612,2.86849 0.04442,1.08806 0.177257,2.09858 0.295191,2.24561 0.284758,0.355 0.328645,19.84764 0.04738,21.04284 -0.120601,0.51247 -0.14859,1.13328 -0.0622,1.37957 0.08639,0.24629 0.09749,1.19621 0.02466,2.11094 -0.07283,0.91472 -0.07289,3.49103 -1.31e-4,5.72512 0.141528,4.34558 -0.185831,8.58121 -0.888701,11.49871 -0.238819,0.99129 -0.434216,2.19392 -0.434216,2.6725 0,0.47857 -0.105173,1.21533 -0.233717,1.63722 -0.462508,1.51801 -0.829835,2.9223 -1.350348,5.1624 -0.5215,2.24434 -1.344397,4.42246 -2.419204,6.40337 -0.301135,0.55501 -0.487195,1.23978 -0.413466,1.52172 0.07373,0.28194 0.0435,0.45666 -0.06717,0.38826 -0.205227,-0.12684 -0.807765,0.98075 -0.807765,1.48484 0,0.46016 -2.168904,4.79278 -2.865727,5.7246 -1.145475,1.53177 -3.219062,5.43382 -3.21948,6.05837 -1.15e-4,0.17154 -0.430145,0.76686 -0.955622,1.32292 -2.474133,2.61815 -5.923753,6.85799 -5.923753,7.28073 0,0.1341 -0.12261,0.16804 -0.272467,0.0754 -0.289992,-0.17923 -1.262659,0.59459 -3.83598,3.05176 -0.877197,0.8376 -2.42501,2.19697 -3.439583,3.02082 -1.014573,0.82385 -2.023272,1.64309 -2.241554,1.82054 -0.218281,0.17745 -0.992187,0.73738 -1.719791,1.24428 -0.727604,0.5069 -1.382448,0.98746 -1.455208,1.06791 -0.07276,0.0805 -0.608435,0.49717 -1.190388,0.92604 -0.581952,0.42887 -1.177265,0.87113 -1.322916,0.98279 -0.853532,0.65434 -2.279615,1.59726 -3.383962,2.23746 -0.696881,0.40398 -1.64106,1.06194 -2.098174,1.46212 -0.457115,0.40018 -0.978345,0.72761 -1.15829,0.72761 -0.179945,0 -0.36686,0.0893 -0.415367,0.19843 -0.04851,0.10914 -0.628627,0.46214 -1.289156,0.78444 -1.169483,0.57064 -2.557923,1.85935 -2.433033,2.25827 0.0342,0.10914 -0.0569,0.19844 -0.20246,0.19844 -0.14552,0 -0.26459,0.17057 -0.26459,0.37905 0,0.35773 -0.94574,0.84968 -1.39978,0.72813 -0.11503,-0.0308 -0.47222,0.0889 -0.79375,0.26608 -0.32152,0.17714 -0.70365,0.33407 -0.84918,0.34875 -0.52588,0.053 -2.0569,0.77188 -7.01146,3.29204 -1.23692,0.62917 -2.66365,1.39259 -3.1705,1.6965 -0.50685,0.30391 -1.1,0.57875 -1.31811,0.61076 -0.21811,0.032 -0.43842,0.18375 -0.48957,0.3372 -0.0511,0.15344 -0.27305,0.27899 -0.49312,0.27899 -0.22007,0 -0.71617,0.21817 -1.10243,0.48482 -0.8412,0.5807 -4.57611,2.60684 -7.5393,4.08997 -1.17726,0.58923 -2.42126,1.35212 -2.76443,1.69529 -0.34317,0.34317 -0.94262,0.66339 -1.3321,0.7116 -0.38948,0.0482 -1.16728,0.2822 -1.72844,0.51998 -0.56116,0.23778 -1.12671,0.36656 -1.25677,0.28618 -0.13006,-0.0804 -0.23647,-0.036 -0.23647,0.0986 0,0.13461 -0.74415,0.51189 -1.65365,0.8384 -0.90951,0.32651 -2.01083,0.75174 -2.4474,0.94496 -2.31301,1.02374 -3.54708,1.46237 -6.74687,2.39806 -0.80037,0.23405 -1.87193,0.59335 -2.38125,0.79845 -0.50932,0.2051 -2.05714,0.49389 -3.43958,0.64176 -4.0214,0.43014 -5.39717,0.64608 -5.82084,0.91364 -0.34881,0.22029 -3.3587,0.38766 -3.54901,0.19734 z m 7.38547,-5.20732 c 1.85012,-0.15755 4.88059,-0.90397 5.89692,-1.45245 0.54024,-0.29154 2.05381,-0.84208 3.3635,-1.22341 3.04536,-0.88669 5.37809,-1.68215 6.21771,-2.12022 1.23227,-0.64293 10.0786,-4.88022 10.18861,-4.88022 0.28695,0 7.53542,-4.42511 8.46607,-5.16844 0.58295,-0.46561 1.47591,-0.93507 1.98438,-1.04323 1.57385,-0.33481 4.45661,-1.66503 6.16852,-2.8464 0.89931,-0.62062 1.67481,-1.21769 1.72332,-1.32683 0.0485,-0.10914 0.2271,-0.19999 0.39687,-0.2019 0.34289,-0.004 3.90361,-2.27927 4.93889,-3.15613 0.3638,-0.30813 1.95884,-1.21323 3.544526,-2.01133 3.255663,-1.63863 5.662804,-3.3338 8.753827,-6.16468 1.166791,-1.0686 2.539202,-2.21282 3.049802,-2.54272 1.761269,-1.13796 11.372723,-10.52407 11.37662,-11.10989 0.001,-0.15372 0.714561,-1.17246 1.58564,-2.26387 0.87108,-1.09141 1.584619,-2.08199 1.585641,-2.20129 0.001,-0.1193 0.385768,-0.77414 0.854989,-1.45521 2.55178,-3.70384 6.257521,-11.22567 6.800036,-13.80256 0.168104,-0.79847 0.494587,-1.74013 0.725518,-2.09257 0.230931,-0.35245 0.460691,-1.15883 0.510577,-1.79195 0.04989,-0.63313 0.199369,-1.35834 0.332184,-1.61159 0.132815,-0.25325 0.251052,-1.02348 0.262749,-1.71163 0.0117,-0.68814 0.198448,-1.52158 0.415001,-1.85208 0.216554,-0.3305 0.391451,-0.69189 0.388661,-0.80308 -0.0028,-0.1112 0.113058,-0.82557 0.257441,-1.58751 0.144382,-0.76193 0.262473,-1.56392 0.262425,-1.7822 -1.5e-4,-0.68054 0.256452,-2.089 0.432477,-2.37382 0.09246,-0.14961 0.01226,-0.27384 -0.17823,-0.27606 -0.278214,-0.003 -0.276351,-0.0484 0.0095,-0.22956 0.254812,-0.16149 0.385802,-1.11794 0.461455,-3.36939 0.0581,-1.72913 0.177744,-5.04888 0.265871,-7.37721 0.08813,-2.32834 0.158585,-4.76912 0.156573,-5.42396 -0.0056,-1.83945 -0.273708,-13.59247 -0.316812,-13.89063 -0.02104,-0.14552 -0.01906,-2.16958 0.0044,-4.49791 0.03107,-3.08306 -0.0756,-4.77253 -0.39256,-6.21771 -1.21469,-5.53839 -1.316842,-6.27754 -1.241553,-8.9837 0.04232,-1.5213 -0.03514,-3.00958 -0.172147,-3.30729 -0.137005,-0.29772 -0.393884,-1.55333 -0.570842,-2.79026 -0.776467,-5.42747 -1.357264,-8.7181 -1.681164,-9.525 -0.08762,-0.21828 -0.219537,-1.05172 -0.293146,-1.85209 -0.07361,-0.80036 -0.256033,-1.90169 -0.405386,-2.44739 -0.603516,-2.20511 -0.733525,-2.82327 -0.618066,-2.93873 0.06652,-0.0665 -0.06599,-0.48245 -0.294464,-0.92427 -0.241321,-0.46667 -0.311261,-0.8677 -0.166888,-0.95692 0.140024,-0.0865 -0.03254,-0.75729 -0.39526,-1.53637 -0.354083,-0.76053 -0.64495,-1.71494 -0.646372,-2.12092 -0.0014,-0.40598 -0.24071,-1.20491 -0.531751,-1.7754 -0.291042,-0.57049 -0.529167,-1.22315 -0.529167,-1.45036 0,-0.38581 -1.591358,-4.66168 -2.101413,-5.64636 -0.126467,-0.24414 -0.554893,-1.21781 -0.952058,-2.16369 -0.397166,-0.94589 -1.301361,-2.94728 -2.009324,-4.44753 -0.707963,-1.50026 -1.287205,-2.78153 -1.287205,-2.84727 0,-0.11841 -1.350631,-2.09675 -3.216328,-4.71111 -0.532053,-0.74555 -1.298173,-1.89133 -1.70249,-2.54618 -0.404316,-0.65484 -0.89451,-1.35073 -1.089319,-1.54642 -0.194809,-0.19569 -0.547663,-0.73147 -0.78412,-1.19062 -0.236457,-0.45916 -0.709932,-1.20326 -1.052166,-1.65356 -0.342234,-0.4503 -0.622243,-0.94639 -0.622243,-1.10243 0,-0.15604 -0.104986,-0.32339 -0.233302,-0.3719 -0.128316,-0.0485 -0.900805,-1.28654 -1.716642,-2.75119 -1.77068,-3.17884 -4.832953,-6.5503 -6.22788,-6.85667 -0.478303,-0.10506 -2.065692,-0.1054 -3.527531,-7.7e-4 l -2.657889,0.19023 -2.004995,1.92231 -2.00499,1.92231 0.0516,1.74136 c 0.0284,0.95775 0.34684,2.90638 0.70768,4.3303 0.36083,1.42391 0.73462,3.03673 0.83062,3.58404 0.096,0.54731 0.28013,1.06035 0.40915,1.14009 0.12903,0.0797 0.23459,0.69413 0.23459,1.36531 0,0.77944 0.16325,1.40071 0.45187,1.71963 0.36898,0.40772 0.458831,1.09102 0.48982,3.725 0.07331,6.23139 -1.28231,8.11627 -6.16721,8.57498 -1.34607,0.1264 -2.44739,0.14559 -2.44739,0.0427 0,-0.15686 -2.16339,-1.63788 -3.04271,-2.083 -1.65564,-0.8381 -3.92368,-3.1192 -5.69818,-5.73097 -0.21298,-0.31347 -0.942,-1.34554 -1.62004,-2.29349 -1.07962,-1.50939 -4.37689,-8.44362 -5.41764,-11.39339 -0.5616,-1.59177 -2.1492,-3.48367 -3.57414,-4.25922 -0.70664,-0.3846 -1.28479,-0.60955 -1.28479,-0.4999 0,0.10966 -0.14883,0.0183 -0.33073,-0.20313 -0.32958,-0.4011 -1.29201,-0.7318 -3.73352,-1.28284 -1.02335,-0.23097 -1.40175,-0.21604 -1.85208,0.0731 -0.31128,0.19984 -1.33987,0.51123 -2.28576,0.69198 -0.94588,0.18074 -1.98504,0.38106 -2.30923,0.44516 -0.80851,0.15985 -3.88326,3.08389 -4.508,4.28703 -0.28038,0.53996 -0.66265,1.458 -0.8495,2.04008 -0.18685,0.58209 -0.4301,1.1774 -0.54055,1.32292 -0.11045,0.14552 -0.54141,1.6338 -0.9577,3.30729 -0.68192,2.74133 -0.75612,3.47512 -0.74916,7.40834 0.006,3.11453 0.10801,4.54565 0.35764,4.99382 0.19245,0.34551 0.38676,0.88129 0.43181,1.19062 0.045,0.30934 0.27826,1.21728 0.51823,2.01764 0.23998,0.80036 0.52626,1.93146 0.63617,2.51354 0.10992,0.58208 0.34086,1.3184 0.5132,1.63625 0.17234,0.31786 0.31334,0.7987 0.31334,1.06854 0,0.26984 0.23427,0.95012 0.5206,1.51173 0.28633,0.56162 0.44653,1.14097 0.356,1.28745 -0.0934,0.15105 -0.0324,0.18461 0.14086,0.0776 0.18907,-0.11685 0.30546,-10e-4 0.30546,0.30324 0,0.59461 0.58636,1.91551 0.85159,1.91839 0.10458,10e-4 0.13226,0.15288 0.0615,0.33722 -0.12199,0.31792 0.75604,2.21392 2.98656,6.44911 1.97693,3.7537 5.88991,6.9094 5.88991,7.56158 0,0.34095 2.56489,2.77211 3.70417,3.51104 0.50932,0.33035 1.21469,0.91253 1.56748,1.29375 0.35278,0.38121 0.72987,0.69311 0.83796,0.69311 0.10809,0 0.77194,0.25665 1.47523,0.57034 0.70329,0.31368 1.41243,0.59858 1.57588,0.63312 0.16345,0.0345 0.69923,0.2426 1.19063,0.46238 1.81471,0.81164 2.32117,0.79061 7.58637,-0.31503 4.30853,-0.90475 6.64695,-1.13125 10.6203,6.9156 1.84584,3.7382 2.05214,4.37475 2.78651,8.59805 0.2085,1.19905 0.49833,2.61194 0.64407,3.13976 0.14574,0.52782 0.21312,1.27319 0.14973,1.65637 -0.0634,0.38319 -0.17264,1.88733 -0.2428,3.34254 -0.14839,3.07809 -0.24253,3.9703 -0.62814,5.95322 -0.15563,0.80031 -0.34636,1.9685 -0.42385,2.59597 -0.0775,0.62748 -0.22931,1.28232 -0.33738,1.45521 -0.10807,0.17289 -0.22674,0.43341 -0.26371,0.57893 -0.037,0.14552 -0.24869,0.91561 -0.47046,1.71131 -0.22178,0.79569 -0.40324,1.64708 -0.40324,1.89195 0,0.65661 -1.17157,3.06973 -1.88984,3.89256 -0.34303,0.39298 -1.20323,1.59545 -1.91154,2.67217 -1.287,1.95639 -4.26705,5.35468 -5.35265,6.10389 -0.31629,0.21828 -1.37932,1.14661 -2.36228,2.06295 -0.98296,0.91634 -2.15742,1.8539 -2.60992,2.08346 -0.4525,0.22957 -1.29897,0.79923 -1.88106,1.26591 -1.15385,0.9251 -3.85679,2.28038 -4.74165,2.37751 -0.30526,0.0335 -0.8387,0.21275 -1.18541,0.3983 -0.34672,0.18556 -1.3819,0.55229 -2.30041,0.81496 -1.71913,0.49163 -3.2819,1.27127 -3.2819,1.63729 0,0.11414 -0.69608,0.20753 -1.54685,0.20753 -0.85793,0 -1.90795,0.18015 -2.35764,0.40448 -1.57761,0.78701 -7.26457,1.7947 -11.83822,2.09764 -0.87313,0.0578 -1.88516,0.21625 -2.24896,0.35203 -0.60017,0.22402 -2.18121,0.44703 -5.1972,0.7331 -2.12121,0.20119 -2.75877,1.10363 -3.46983,1.33638 -1.39771,0.45751 -2.0375,0.48551 -2.74144,0.80612 -0.4786,0.21798 -0.4184,0.36366 -1.10135,0.39598 -0.80951,0.0383 -1.03251,0.07 -1.64534,0.23406 -0.41432,0.1109 -0.68597,0.15263 -2.38125,0.36581 -1.5338,0.19287 -4.81843,1.41394 -7.27393,2.70411 -0.65369,0.34346 -1.28169,0.62447 -1.39555,0.62447 -0.80122,0 -7.86698,5.26254 -7.86698,5.85928 0,0.14155 -0.11516,0.18619 -0.25593,0.0992 -0.14076,-0.087 -0.40752,0.0846 -0.59281,0.38126 -0.18528,0.29669 -0.45707,0.54275 -0.60396,0.54679 -0.46055,0.0127 -1.74875,1.49481 -1.79141,2.0611 -0.0224,0.29742 -0.10532,0.52136 -0.18425,0.49765 -0.35352,-0.10619 -3.0964,2.48613 -4.98349,4.70994 -1.80304,2.12477 -4.28815,7.66684 -4.28815,9.56306 0,0.34682 -0.11906,0.86709 -0.26458,1.15616 -0.14552,0.28906 -0.3941,0.77882 -0.5524,1.08835 -0.1583,0.30953 -0.46667,1.23227 -0.68527,2.05052 -0.56861,2.12839 -0.51196,9.67329 0.0876,11.6742 0.23984,0.80037 0.41974,1.71959 0.39978,2.04272 -0.0616,0.99737 1.79066,6.17797 2.61847,7.32359 0.4311,0.5966 1.28106,1.79911 1.8888,2.67224 0.60774,0.87312 1.27226,1.71306 1.4767,1.86652 0.20445,0.15346 0.98789,1.10596 1.74098,2.11666 0.8708,1.1687 1.75277,2.03028 2.42279,2.36682 0.57945,0.29104 1.09788,0.64822 1.15208,0.79375 0.0542,0.14552 0.9045,1.05487 1.88957,2.02079 1.32741,1.30159 2.19228,1.90539 3.34105,2.33253 0.85251,0.31698 1.78813,0.72349 2.07918,0.90336 0.29104,0.17987 1.06494,0.47702 1.71979,0.66032 0.65484,0.18331 1.54781,0.45204 1.98437,0.59717 0.43656,0.14513 0.97235,0.30582 1.19063,0.35708 0.21828,0.0513 0.70918,0.21415 1.09088,0.36197 0.49735,0.1926 0.78295,0.18052 1.00786,-0.0426 0.24128,-0.23939 0.27694,-0.21434 0.1542,0.1083 -0.12368,0.32514 0.0367,0.43202 0.71193,0.47432 0.47937,0.03 1.76455,0.22147 2.85596,0.42542 1.46999,0.2747 3.42467,0.33736 7.54063,0.24171 3.05593,-0.071 6.0325,-0.16967 6.61458,-0.21923 z m 71.834362,-181.39089 c 0,-0.14552 0.119063,-0.26459 0.264584,-0.26459 0.14552,0 0.264583,0.11907 0.264583,0.26459 0,0.14552 -0.119063,0.26458 -0.264583,0.26458 -0.145521,0 -0.264584,-0.11906 -0.264584,-0.26458 z m 0.214974,-0.70991 c 0.190996,-0.0764 0.419199,-0.067 0.507118,0.0209 0.08792,0.0879 -0.06835,0.15045 -0.347265,0.13896 -0.308225,-0.0127 -0.370919,-0.0754 -0.159853,-0.15985 z M -184.75627,436.94746 c 0,-0.20615 -0.14883,-0.43488 -0.33073,-0.50828 -0.19757,-0.0797 -0.14431,-0.14186 0.13229,-0.15434 0.2936,-0.0132 0.46302,0.17274 0.46302,0.50828 0,0.29104 -0.0595,0.52917 -0.13229,0.52917 -0.0728,0 -0.13229,-0.16867 -0.13229,-0.37483 z M -57.219002,363.3717 c 0,-0.14552 0.115416,-0.44317 0.256481,-0.66146 0.141064,-0.21828 0.25648,-0.27781 0.25648,-0.13229 0,0.14552 -0.115416,0.44318 -0.25648,0.66146 -0.141065,0.21828 -0.256481,0.27781 -0.256481,0.13229 z M -207.24584,338.10549 c 0,-0.0943 -0.72017,-0.13859 -1.60039,-0.0984 -1.20615,0.0551 -1.63677,-0.0218 -1.7481,-0.31188 -0.0812,-0.21172 -0.42889,-0.38494 -0.77256,-0.38494 -0.47544,0 -0.58923,-0.11071 -0.4759,-0.46302 0.1152,-0.35809 0.0901,-0.38047 -0.11079,-0.0987 -0.21489,0.30136 -0.50476,0.30884 -1.6786,0.0433 -1.65401,-0.37417 -4.19785,-1.19847 -5.51991,-1.78866 -2.61765,-1.16857 -3.6887,-1.65445 -4.89479,-2.2205 -0.72761,-0.34149 -1.47175,-0.60679 -1.65365,-0.58956 -0.1819,0.0172 -0.33073,-0.0701 -0.33073,-0.194 0,-0.12393 -0.74414,-0.72715 -1.65364,-1.34048 -2.12882,-1.43558 -3.83624,-2.85981 -5.91616,-4.93486 -2.31227,-2.30687 -3.01353,-3.09911 -3.01353,-3.40449 0,-0.14441 -0.29004,-0.53504 -0.64453,-0.86806 -0.35449,-0.33303 -0.96151,-1.39558 -1.34892,-2.36123 -0.38741,-0.96565 -0.85538,-2.11338 -1.03994,-2.55053 -0.18456,-0.43715 -0.42579,-1.21105 -0.53607,-1.71979 -0.1698,-0.78336 -0.93032,-2.17544 -1.44488,-2.64477 -0.0798,-0.0728 -0.15093,-0.25136 -0.15813,-0.39688 -0.007,-0.14552 -0.10054,-0.8599 -0.20742,-1.5875 -0.73683,-5.01632 -1.05537,-8.27128 -1.08101,-11.04635 -0.0118,-1.27331 -0.12343,-2.31511 -0.24814,-2.31511 -0.12471,0 -0.14874,-0.20326 -0.0534,-0.4517 0.0953,-0.24844 0.23629,-1.76648 0.31323,-3.37344 0.16798,-3.50838 0.95863,-8.29901 1.56412,-9.47727 0.71954,-1.40017 1.44552,-3.65991 1.44552,-4.49944 0,-1.92275 5.3628,-12.94648 6.54898,-13.46202 0.18995,-0.0825 3.3182,-3.53457 5.72054,-6.3126 0.56361,-0.65174 1.14723,-1.45059 1.29693,-1.77522 0.1497,-0.32462 0.51833,-0.66835 0.81917,-0.76383 0.30085,-0.0955 1.44364,-1.08029 2.53954,-2.18845 1.0959,-1.10817 2.41721,-2.33144 2.93625,-2.71838 0.51903,-0.38695 1.76422,-1.48851 2.76707,-2.44792 1.74424,-1.66869 3.90511,-3.06515 4.74297,-3.06515 0.21654,0 0.78427,-0.21878 1.26164,-0.48618 0.47737,-0.2674 1.01671,-0.43609 1.19854,-0.37487 0.18182,0.0612 0.40292,-0.0772 0.49133,-0.30757 0.0884,-0.23038 0.38245,-0.41888 0.65345,-0.41888 0.27099,0 0.98157,-0.25481 1.57907,-0.56624 0.5975,-0.31144 1.28578,-0.58744 1.5295,-0.61335 0.24373,-0.0259 0.80033,-0.20115 1.23689,-0.38943 0.43656,-0.18828 0.97234,-0.3659 1.19063,-0.39471 1.64882,-0.21759 3.08494,-0.51705 3.30729,-0.68965 0.14552,-0.11295 1.15755,-0.27629 2.24895,-0.36297 4.23917,-0.33667 6.55708,-0.58505 8.39657,-0.89974 0.76181,-0.13033 1.44595,-0.17612 1.52031,-0.10176 0.1418,0.1418 1.05561,0.27157 3.04771,0.43281 0.65484,0.053 1.66687,0.28078 2.24896,0.50617 0.58208,0.2254 1.50481,0.41504 2.05052,0.42143 0.5457,0.006 0.99218,0.13067 0.99218,0.27619 0,0.14552 0.13017,0.26459 0.28927,0.26459 0.15909,0 1.20089,0.46374 2.3151,1.03055 3.93213,2.00028 5.27047,2.8531 5.47152,3.48657 0.089,0.28048 0.25127,0.50996 0.36055,0.50996 0.10928,0 0.6668,0.41662 1.23894,0.92583 0.57214,0.50921 1.18908,0.92593 1.37098,0.92605 0.1819,1.1e-4 0.33154,0.14903 0.33254,0.33093 9.9e-4,0.1819 0.4084,0.60759 0.90535,0.94597 0.49695,0.33838 1.08925,1.00659 1.31622,1.48491 0.22698,0.47831 0.59348,1.0197 0.81444,1.20309 0.22097,0.18339 0.40176,0.44047 0.40176,0.57129 0.91334,1.19921 1.11648,2.98555 2.14046,4.08451 0.27796,0.25154 0.50537,0.71006 0.50537,1.01893 0,0.30887 0.19532,0.84043 0.43404,1.18125 0.53302,0.761 2.08935,6.62291 2.34699,8.83994 0.0644,0.55412 0.18009,1.10944 0.2571,1.23405 0.42167,0.68228 0.6356,7.43283 0.28112,8.87096 -0.10761,0.43656 -0.21385,1.41861 -0.23609,2.18234 -0.0222,0.76372 -0.12626,1.3888 -0.23113,1.38906 -0.30979,7.7e-4 -1.52911,2.86807 -1.52911,3.59581 0,0.36807 -0.0961,0.60981 -0.21364,0.53719 -0.1175,-0.0726 -0.74258,0.47692 -1.38906,1.22119 -0.64648,0.74427 -1.50285,1.69879 -1.90303,2.12115 -0.40018,0.42236 -0.7276,0.86151 -0.7276,0.9759 0,0.3166 -3.86986,3.90105 -4.69699,4.35057 -1.71902,0.93425 -7.53408,3.60741 -8.20064,3.76981 -0.40063,0.0976 -1.32373,0.44614 -2.05133,0.77453 -0.7276,0.32838 -1.88993,0.68134 -2.58294,0.78434 -0.69301,0.10301 -1.32512,0.29262 -1.40468,0.42135 -0.0796,0.12873 -0.50621,0.23405 -0.94811,0.23405 -0.92012,0 -2.40177,0.78115 -2.24692,1.18462 0.067,0.17458 -0.67841,0.24431 -2.10096,0.19652 -1.57563,-0.0529 -2.49094,0.0477 -3.20748,0.35257 -0.55146,0.23466 -1.88026,0.47187 -2.95287,0.52714 -1.07262,0.0553 -2.32278,0.22087 -2.77813,0.36801 -0.51214,0.1655 -3.09849,0.21545 -6.78103,0.13095 -3.27422,-0.0751 -6.76076,-0.1546 -7.74786,-0.17662 -1.60375,-0.0358 -1.86728,0.0325 -2.47639,0.64163 -0.455,0.45499 -0.72531,1.06896 -0.81295,1.84648 -0.11601,1.02931 -0.0218,1.3083 0.81005,2.39805 0.51774,0.67827 1.19005,1.72073 1.49402,2.31656 0.30397,0.59583 0.83385,1.19023 1.17752,1.3209 0.34366,0.13066 1.48305,0.98906 2.53196,1.90756 2.25913,1.97825 2.00453,1.80988 4.49448,2.97227 2.08984,0.97561 2.82263,1.1336 6.87916,1.48317 1.38245,0.11913 3.16839,0.33174 3.96875,0.47247 0.80037,0.14072 1.45521,0.25133 1.45521,0.24579 0,-0.1735 3.05561,1.70749 3.68973,2.27135 0.29898,0.26585 0.86981,0.67776 1.2685,0.91534 0.88329,0.52635 3.08353,4.733 3.28166,6.2742 0.1893,1.47253 -0.93741,4.01792 -1.88363,4.25541 -0.36724,0.0922 -0.66772,0.25463 -0.66772,0.36101 0,0.25037 -1.35039,0.86826 -1.52216,0.69649 -0.072,-0.072 -0.5626,0.0853 -1.09028,0.34942 -0.94601,0.47357 -2.38838,0.93801 -2.71386,0.87387 -0.0918,-0.0181 -0.37816,0.20049 -0.63632,0.48576 -0.25817,0.28527 -0.36871,0.13175 -0.52806,0.12952 -0.15935,-0.002 -0.34218,0.26563 -0.12394,0.12456 0.31943,-0.20643 0.27791,-0.25727 -0.21274,-0.26053 -0.33528,-0.002 -1.28778,0.37545 -2.11666,0.83929 -1.47156,0.82348 -1.59743,0.84543 -5.34351,0.93211 -2.11006,0.0488 -4.16389,0.12495 -4.56407,0.16917 -0.40018,0.0442 -0.7276,0.003 -0.7276,-0.0911 z m 7.27604,-6.06384 c 3.11442,-0.299 5.25015,-0.80722 6.96217,-1.65674 1.00434,-0.49837 1.25691,-0.76477 1.32936,-1.40217 0.0753,-0.66263 -0.12875,-0.98646 -1.29216,-2.05052 -0.81359,-0.74411 -1.63258,-1.26361 -1.99206,-1.26361 -0.33575,0 -0.66833,-0.0937 -0.73907,-0.20811 -0.0707,-0.11446 -0.88144,-0.23682 -1.80155,-0.27192 -0.92012,-0.0351 -2.9231,-0.24545 -4.45106,-0.46744 -2.4383,-0.35425 -3.13414,-0.58437 -5.68855,-1.88125 -1.60073,-0.8127 -3.57267,-1.99698 -4.38209,-2.63175 -0.80942,-0.63476 -1.61309,-1.15412 -1.78594,-1.15412 -0.17284,0 -0.31426,-0.10366 -0.31426,-0.23037 0,-0.1267 -0.8632,-1.06188 -1.91823,-2.07816 -3.53354,-3.40379 -4.03013,-3.90859 -5.01944,-5.10238 -0.68684,-0.82881 -0.98685,-1.45063 -0.99219,-2.05644 -0.004,-0.47762 -0.19533,-1.31105 -0.42474,-1.85208 -0.22941,-0.54103 -0.43163,-1.77441 -0.44937,-2.74085 -0.0263,-1.43257 0.0996,-2.01135 0.68168,-3.13327 0.41898,-0.80756 0.71396,-1.80329 0.71396,-2.41003 0,-0.56866 0.11223,-1.03392 0.24939,-1.03392 0.13717,0 0.20149,-0.24872 0.14295,-0.55272 -0.0883,-0.45866 -0.0407,-0.49817 0.27977,-0.23219 0.30968,0.25701 0.38622,0.24107 0.38622,-0.0804 0,-0.57713 0.61548,-0.73287 2.20941,-0.55907 0.76981,0.0839 1.84584,0.0294 2.39117,-0.12114 0.99995,-0.2761 4.105,0.0679 4.39526,0.48697 0.49494,0.71457 2.14964,1.16735 4.49791,1.23078 1.38245,0.0373 3.28438,0.13899 4.2265,0.22588 2.15513,0.19876 5.7797,-0.21685 10.85475,-1.24466 0.65485,-0.13262 1.60735,-0.30816 2.11667,-0.39008 0.50932,-0.0819 1.04989,-0.24777 1.20126,-0.36853 0.15138,-0.12075 0.92528,-0.29388 1.7198,-0.38472 1.34302,-0.15355 5.93644,-1.59881 7.04283,-2.21594 0.26793,-0.14945 1.5049,-0.73792 2.74882,-1.30772 3.00719,-1.37748 5.74508,-3.15928 6.80861,-4.43098 0.47637,-0.56961 1.16622,-1.39285 1.533,-1.82941 1.13957,-1.35636 3.66089,-4.91685 4.1566,-5.86974 0.56026,-1.07697 0.99428,-4.34049 0.87319,-6.56567 -0.17454,-3.20729 -0.92542,-7.2477 -1.59105,-8.56126 -0.36125,-0.71289 -0.5865,-1.36649 -0.50056,-1.45243 0.0859,-0.0859 -0.0155,-0.42787 -0.22534,-0.75983 -0.20987,-0.33196 -0.53605,-1.13935 -0.72483,-1.79419 -0.41581,-1.44237 -1.93909,-4.23386 -2.67259,-4.89767 -0.29315,-0.26529 -0.79816,-1.0133 -1.12226,-1.66224 -0.3241,-0.64895 -0.82854,-1.3953 -1.12098,-1.65857 -1.45675,-1.31146 -4.46016,-3.68777 -4.66095,-3.68777 -0.12537,0 -0.92875,-0.33948 -1.78529,-0.75439 -0.85653,-0.4149 -2.67413,-1.02575 -4.03911,-1.35742 -2.28416,-0.55503 -2.87153,-0.59055 -7.37657,-0.44609 -2.69213,0.0863 -5.29038,0.27461 -5.77387,0.41841 -0.48349,0.14381 -1.59837,0.32797 -2.47751,0.40924 -2.00296,0.18518 -2.61499,0.33889 -3.84373,0.96533 -0.53975,0.27519 -1.15609,0.50033 -1.36965,0.50033 -0.21356,0 -0.81347,0.1358 -1.33312,0.30178 -3.92873,1.25483 -6.42388,2.79053 -9.77758,6.01784 -1.21999,1.17401 -2.31689,2.07356 -2.43755,1.99899 -0.3495,-0.216 -2.25295,1.10383 -3.75611,2.60444 -0.76033,0.75904 -1.85762,1.73526 -2.43842,2.16938 -0.5808,0.43411 -1.35366,1.14503 -1.71746,1.57981 -0.3638,0.43479 -1.37583,1.55047 -2.24896,2.4793 -0.87312,0.92883 -1.63693,1.82526 -1.69735,1.99206 -0.0604,0.1668 -0.57114,0.77953 -1.13494,1.36161 -0.98707,1.0191 -3.91458,6.54846 -3.91458,7.39371 0,0.21875 -0.35719,1.29689 -0.79375,2.39588 -0.43656,1.09898 -0.79375,2.29006 -0.79375,2.64685 0,0.35679 -0.28682,1.27643 -0.63737,2.04364 -0.36565,0.80024 -0.76653,2.4101 -0.94033,3.77617 -0.16662,1.30969 -0.48437,3.26596 -0.70612,4.34727 -0.301,1.46782 -0.36318,2.84227 -0.24537,5.42396 0.26125,5.72526 0.4264,7.4008 0.78415,7.95586 0.18759,0.29104 0.42541,1.17286 0.52849,1.9596 0.10308,0.78674 0.36144,1.76696 0.57413,2.17825 0.21269,0.4113 0.46193,1.31542 0.55387,2.00915 0.0919,0.69373 0.44713,1.90122 0.78931,2.68332 0.34219,0.78209 0.62216,1.62923 0.62216,1.88254 0,0.25331 0.22176,0.74451 0.4928,1.09156 0.27104,0.34705 0.73463,1.10724 1.03021,1.68933 0.5031,0.99078 6.55717,6.74687 7.09613,6.74687 0.0591,0 0.6229,0.3934 1.25281,0.87421 0.6299,0.48082 1.5239,1.03105 1.98666,1.22273 0.46276,0.19168 0.84139,0.46587 0.84139,0.6093 0,0.14344 0.1771,0.19283 0.39355,0.10977 0.21646,-0.0831 1.18006,0.20186 2.14133,0.63315 0.96128,0.4313 1.92596,0.78418 2.14373,0.78418 0.21778,0 1.4866,0.37783 2.81961,0.83962 3.69612,1.28044 6.54102,1.44247 13.53615,0.77092 z m -2.77812,-50.1449 c -0.51882,0.0229 -0.10937,-0.91728 -0.24303,-1.16703 -0.13366,-0.24975 -0.32851,-1.73034 -0.433,-3.29019 -0.20901,-3.1202 0.14833,-4.90193 1.37547,-6.85823 0.81863,-1.30506 5.31318,-4.65767 6.00913,-4.48238 0.12446,0.0314 0.39235,-0.0808 0.59532,-0.24926 0.20296,-0.16845 0.36902,-0.23312 0.36902,-0.14372 0,0.1873 1.91389,-0.49049 2.95124,-1.04516 0.78502,-0.41975 2.49377,-0.50498 2.72195,-0.13577 0.0815,0.13186 0.41594,0.17381 0.74322,0.0932 0.32728,-0.0806 0.50466,-0.0485 0.39419,0.0714 -0.11047,0.11983 0.0591,0.49459 0.37685,0.83281 0.31774,0.33822 0.47897,0.61494 0.35829,0.61494 -0.12068,0 -0.0428,0.20836 0.17301,0.46302 1.60412,1.89266 1.97219,3.61308 1.53158,7.15883 -0.35201,2.83268 -1.26462,4.55623 -3.35589,6.33792 -0.8094,0.68958 -1.74214,1.51682 -2.07275,1.83833 -0.33061,0.3215 -0.90903,0.66183 -1.28536,0.75629 l -5.7477,1.24495 z m 7.90936,-4.65679 c 1.48204,-0.67242 3.52892,-2.82005 3.31878,-3.48213 -0.0832,-0.2622 -0.0377,-0.47673 0.10108,-0.47673 0.34517,0 0.57206,-1.64866 0.27747,-2.01629 -0.50283,-0.6275 -3.71698,0.79147 -5.10569,2.25404 -0.87619,0.92281 -1.63153,3.70296 -1.10242,4.05768 0.485,0.32515 1.29025,0.2172 2.51078,-0.33657 z m -16.50832,60.59948 c -0.0899,-0.14552 -0.0374,-0.26458 0.11667,-0.26458 0.15411,0 0.2802,0.11906 0.2802,0.26458 0,0.14552 -0.0525,0.26458 -0.11667,0.26458 -0.0642,0 -0.19027,-0.11906 -0.2802,-0.26458 z"
         id="path9" /><path
         style="fill:#000000;stroke:#000000;stroke-width:10;stroke-dasharray:none;stroke-opacity:1"
         d="m -363.22122,342.71542 c -0.58209,-0.1469 -1.36512,-0.298 -1.74007,-0.3358 -0.37495,-0.038 -0.80483,-0.1449 -0.95528,-0.2378 -0.15045,-0.093 -0.35276,-0.09 -0.44957,0.01 -0.37165,0.3716 -1.22071,0.33 -1.22071,-0.06 0,-0.2307 -0.24783,-0.3992 -0.59531,-0.4046 -0.32742,-0.01 -0.89297,-0.1796 -1.25677,-0.3875 -0.3638,-0.208 -0.97282,-0.3824 -1.35338,-0.3875 -0.38056,-0.01 -0.97587,-0.2178 -1.32292,-0.4724 -1.27954,-0.939 -2.25625,-1.3287 -3.79623,-1.515 -1.06826,-0.1292 -1.92265,-0.4292 -2.64583,-0.929 -1.55039,-1.0716 -3.58164,-2.9125 -3.58164,-3.2461 0,-0.1581 -0.345,-1.0112 -0.76667,-1.8958 -1.605,-3.3671 -2.70598,-6.2614 -3.07765,-8.0907 -0.10349,-0.5093 -0.34138,-1.2262 -0.52864,-1.5931 -0.36191,-0.709 -1.08739,-4.2875 -1.44715,-7.1381 -0.42815,-3.3926 -1.0663,-11.33202 -1.13777,-14.15525 -0.0295,-1.16416 -0.14723,-2.26117 -0.2617,-2.43779 -0.11446,-0.17662 -0.26922,-2.19188 -0.34389,-4.47834 -0.0747,-2.28647 -0.19415,-4.25165 -0.26548,-4.36707 -0.0713,-0.11542 -0.17927,-3.39846 -0.23987,-7.29563 -0.16676,-10.72554 -0.53994,-20.02846 -0.82191,-20.48943 -0.0587,-0.096 -0.16742,-1.64379 -0.24157,-3.43958 -0.0742,-1.7958 -0.19781,-4.12829 -0.27479,-5.18331 -0.10671,-1.46233 -0.0588,-1.9192 0.20179,-1.92229 0.26235,-0.003 0.25704,-0.0577 -0.0229,-0.235 -0.20054,-0.12702 -0.28953,-0.35246 -0.19774,-0.50097 0.0918,-0.14851 0.0538,-1.14409 -0.0844,-2.2124 -0.13821,-1.0683 -0.31018,-3.60924 -0.38216,-5.64653 -0.072,-2.03729 -0.23791,-4.06136 -0.36874,-4.49792 -0.26619,-0.88827 0.0462,-4.84091 0.48095,-6.08542 0.23721,-0.67903 0.6669,-3.91775 0.92234,-6.95198 0.0401,-0.47661 0.18303,-1.01239 0.31757,-1.19062 0.13454,-0.17824 0.2695,-0.73613 0.2999,-1.23977 0.0304,-0.50363 0.23008,-1.43053 0.44371,-2.05976 0.21363,-0.62924 0.38842,-1.60913 0.38842,-2.17754 0,-0.56841 0.10876,-1.10069 0.24169,-1.18285 0.13293,-0.0821 0.50266,-0.68846 0.82162,-1.34734 0.6414,-1.32496 2.48847,-3.03566 5.30904,-4.91707 2.30022,-1.53431 5.80837,-3.27911 7.38598,-3.67344 6.54648,-1.63635 7.95249,-1.84921 13.28282,-2.01089 6.20713,-0.18827 9.12108,-0.13815 10.90037,0.18748 0.74201,0.1358 1.76582,0.31181 2.27514,0.39114 0.50933,0.0793 1.28323,0.24561 1.71979,0.3695 0.43657,0.1239 1.80579,0.37266 3.04271,0.55281 1.91732,0.27925 2.4023,0.45818 3.28877,1.21342 0.5719,0.48723 1.22674,0.89375 1.45521,0.90337 1.567,0.066 5.57144,2.0381 6.3453,3.12489 0.76043,1.06792 0.69232,1.74902 -0.24136,2.41386 -0.66591,0.47417 -0.79351,0.7434 -0.79228,1.67166 8.2e-4,0.60856 0.11408,1.52319 0.25169,2.03251 0.3441,1.2735 0.70313,14.05887 0.49038,17.4625 -0.0734,1.17471 0.0356,2.13909 0.34396,3.04271 0.2483,0.7276 0.6472,3.22791 0.88643,5.55625 0.43166,4.20106 0.72967,5.94281 1.2563,7.34261 l 0.2739,0.72804 0.82762,-1.31473 c 1.10993,-1.76319 3.31304,-4.96564 3.69503,-5.3711 0.16918,-0.17957 0.73689,-0.98133 1.26158,-1.7817 1.39689,-2.1308 7.65985,-8.77876 9.28698,-9.85787 0.77039,-0.51092 2.14125,-1.24035 3.04637,-1.62095 1.42146,-0.59773 2.02383,-0.69201 4.42118,-0.69201 3.01566,0 7.6693,0.60376 9.14669,1.18669 0.50932,0.20096 1.40229,0.44354 1.98438,0.53907 0.58208,0.0955 1.17739,0.25964 1.32291,0.36472 0.23329,0.16845 1.49316,0.66004 5.29167,2.06479 1.32426,0.48973 3.37907,1.48468 4.7625,2.30602 1.58587,0.94153 5.84668,3.06371 6.15117,3.06371 0.14648,0 0.41637,0.18079 0.59976,0.40176 0.18338,0.22096 0.76351,0.60403 1.28916,0.85126 0.52566,0.24722 1.0748,0.54892 1.22033,0.67043 0.14552,0.12151 1.03223,0.71563 1.97047,1.32026 0.93824,0.60463 2.75031,2.10717 4.02683,3.33898 1.27652,1.23181 2.41799,2.30846 2.5366,2.39255 0.1186,0.0841 0.68042,0.86726 1.24849,1.74038 0.56807,0.87313 1.47716,2.12329 2.02021,2.77813 0.93655,1.12935 2.3526,3.91664 2.3526,4.63073 0,0.18236 0.18572,0.48569 0.4127,0.67407 0.22698,0.18838 0.6268,0.7685 0.88848,1.28916 0.26168,0.52067 0.67054,1.30385 0.90859,1.74042 0.23804,0.43656 0.43354,1.03782 0.43444,1.33614 8.9e-4,0.29832 0.10278,0.65551 0.22642,0.79375 0.12363,0.13825 0.49241,1.14432 0.81951,2.23573 0.71482,2.38512 1.04922,3.39622 1.35634,4.10104 1.19246,2.73658 2.28245,6.10152 2.46467,7.60878 0.0837,0.69232 0.3216,1.52576 0.52867,1.85208 0.20706,0.32632 0.45682,1.24815 0.55502,2.04852 0.0982,0.80036 0.28086,1.81239 0.40593,2.24896 0.24795,0.86549 1.00839,5.31291 1.01789,5.95313 0.003,0.21828 0.31211,1.46844 0.68638,2.77813 0.39774,1.39181 0.75291,3.48062 0.85477,5.02708 0.26014,3.94923 0.18111,10.1744 -0.14443,11.37703 -0.15755,0.5821 -0.35716,1.6537 -0.44356,2.3813 -0.0864,0.7276 -0.43753,2.1564 -0.78029,3.175 -0.34275,1.0186 -0.7007,2.2334 -0.79545,2.6996 -0.0947,0.4661 -0.38579,1.1209 -0.64676,1.4552 -0.26098,0.3342 -0.73394,1.1187 -1.05102,1.7432 -0.31708,0.6245 -0.83946,1.3983 -1.16085,1.7196 -0.32138,0.3213 -1.16937,1.2986 -1.88442,2.1718 -0.71505,0.8732 -2.32239,2.5681 -3.57187,3.7664 -1.45124,1.3918 -2.24391,2.3474 -2.1946,2.6458 0.0496,0.3004 0.002,0.3571 -0.13397,0.159 -0.1574,-0.2298 -0.34145,-0.2129 -0.72306,0.066 -0.3287,0.2403 -0.38334,0.3743 -0.15267,0.3743 0.50645,0 0.12241,0.3265 -0.44817,0.3811 -0.59696,0.057 -1.97611,0.7101 -2.32348,1.1002 -0.70554,0.7923 -3.5801,2.6064 -6.69416,4.2245 -2.43098,1.2632 -3.37734,1.6106 -4.9475,1.8164 -1.25891,0.1651 -6.93683,-0.6759 -8.53282,-1.2637 -0.61846,-0.2278 -1.12448,-0.3661 -1.12448,-0.3074 0,0.1893 -1.66922,-0.435 -3.61734,-1.3529 -1.04366,-0.4917 -2.09121,-0.894 -2.32789,-0.894 -0.23668,0 -0.93059,-0.2606 -1.54203,-0.579 -0.89379,-0.4654 -0.79528,-0.8836 -2.84085,-0.918 -2.70765,-2.95491 -0.41921,-0.16473 -2.82193,-2.983 -0.34386,-0.40333 -0.59444,-0.741 -0.75446,-1.6916 -0.10226,-0.6074 -0.52515,-1.5981 -0.93974,-2.2015 -1.74733,-2.5429 -2.17729,-5.6266 -1.97482,-14.1635 0.1246,-5.25334 0.0832,-6.48061 -0.245,-7.26615 -0.21721,-0.51984 -0.33533,-1.04159 -0.26249,-1.15944 0.0728,-0.11785 0.0226,-0.50318 -0.11167,-0.85628 -0.13425,-0.3531 -0.30288,-1.16677 -0.37475,-1.80814 -0.11628,-1.03782 -0.47424,-2.0305 -1.25404,-3.47765 -0.13616,-0.25269 -0.24757,-0.62119 -0.24757,-0.81889 0,-0.1977 -0.23508,-0.57221 -0.52241,-0.83223 -0.28733,-0.26003 -0.59919,-0.72497 -0.69303,-1.0332 -0.24609,-0.80832 -2.12721,-3.52383 -3.14867,-4.54529 -1.14074,-1.14074 -3.33848,-2.24137 -4.60587,-2.30663 -1.51493,-0.078 -3.29568,1.2293 -6.17741,4.53501 -0.54571,0.62599 -0.99219,1.28919 -0.99219,1.47378 0,0.18458 -0.37871,0.85841 -0.84158,1.49738 -0.8822,1.21784 -1.93618,3.80216 -2.34968,5.76133 -0.28617,1.35586 0.10728,5.7132 0.6602,7.3115 0.20136,0.5821 0.43373,2.0108 0.51637,3.175 0.0826,1.1642 0.33388,3.2478 0.55832,4.6302 0.4097,2.5236 0.33049,5.3839 -0.16589,5.9907 -0.13594,0.1662 -0.41353,1.1782 -0.61686,2.2489 -0.20334,1.0708 -0.49885,2.458 -0.6567,3.0828 -0.56051,2.2185 -2.55205,4.5992 -4.8598,5.8094 -1.43108,0.7505 -1.6315,0.8194 -4.36973,1.5035 -0.92087,0.23 -1.9329,0.5595 -2.24896,0.7323 -0.31606,0.1727 -0.81277,0.3207 -1.10382,0.3289 -0.29104,0.01 -0.50929,0.134 -0.48499,0.2796 0.0246,0.1471 -0.56277,0.2681 -1.32292,0.2725 -0.7519,0 -2.08146,0.2227 -2.95459,0.485 -0.87312,0.2623 -2.6899,0.6988 -4.03727,0.97 -1.34738,0.2712 -2.57112,0.5681 -2.71941,0.6598 -0.1483,0.092 -0.65169,0.215 -1.11864,0.2741 -0.46695,0.059 -1.74353,0.2822 -2.83684,0.4958 -2.64479,0.5167 -6.75977,0.7093 -8.07325,0.378 z m 7.25725,-4.7554 c 0.51966,-0.1619 1.30202,-0.4547 1.73858,-0.6509 0.43656,-0.1962 1.68672,-0.4701 2.77813,-0.6089 1.0914,-0.1387 2.87734,-0.5624 3.96875,-0.9416 1.0914,-0.3792 2.2225,-0.7346 2.51354,-0.7898 0.29104,-0.055 1.00541,-0.1877 1.5875,-0.2944 0.58208,-0.1067 1.28563,-0.3118 1.56344,-0.4557 0.42016,-0.2176 3.52047,-0.9835 5.58031,-1.3786 0.96089,-0.1843 2.63374,-1.1425 3.39971,-1.9474 0.62642,-0.6582 0.86025,-1.3219 1.38296,-3.9253 0.59454,-2.961 0.90906,-8.5399 0.54208,-9.6153 -0.0745,-0.2183 -0.20135,-1.1113 -0.28192,-1.9844 -0.15596,-1.6901 -0.39211,-3.1074 -1.01398,-6.08543 -0.58031,-2.77904 -0.41883,-7.04994 0.33012,-8.73125 0.32412,-0.72761 0.757,-1.87676 0.96196,-2.55367 0.43937,-1.45109 1.63662,-3.25643 4.11822,-6.2099 0.9931,-1.18194 1.80564,-2.26946 1.80564,-2.41671 0,-0.14725 1.10133,-1.18115 2.44739,-2.29754 l 2.4474,-2.0298 1.98437,0.14001 c 2.76947,0.19541 4.03589,0.42439 4.49792,0.81327 0.21828,0.18372 0.83284,0.48786 1.36569,0.67586 0.53284,0.188 1.3242,0.70866 1.75856,1.15702 0.43437,0.44836 1.48007,1.51146 2.32378,2.36244 1.39866,1.41071 2.60907,3.08706 1.92274,2.66288 -0.18113,-0.11194 -0.1739,0.025 0.0205,0.38817 0.16516,0.3086 0.38609,0.56109 0.49097,0.56109 0.19585,0 0.42979,0.48176 1.34901,2.77813 0.58487,1.46108 1.72754,3.72871 2.11496,4.19714 0.13682,0.16543 0.24832,0.59843 0.24778,0.96223 -0.001,0.74212 0.51281,2.79546 0.87917,3.51271 0.51648,1.01117 0.82289,4.93302 0.67645,8.65815 -0.20969,5.3341 0.44503,10.7604 1.58954,13.1742 0.50881,1.0731 4.34735,4.4798 5.92706,5.2603 3.58912,1.7734 5.477,2.4132 8.43798,2.86 0.3638,0.055 1.19724,0.2127 1.85208,0.3508 1.95898,0.4131 3.52699,0.2045 5.47699,-0.7287 0.98948,-0.4736 2.69202,-1.288 3.78343,-1.8098 2.79447,-1.336 6.4812,-4.2466 10.19115,-8.0456 2.84217,-2.9104 3.27541,-3.4807 4.08138,-5.3727 0.49593,-1.1642 1.05183,-2.2963 1.23533,-2.5159 0.1835,-0.2195 0.39066,-0.6958 0.46035,-1.0583 0.0697,-0.3625 0.33547,-1.1354 0.5906,-1.7175 0.33407,-0.7621 0.49886,-2.0208 0.58886,-4.49787 0.0687,-1.89177 0.17555,-4.8033 0.23738,-6.47008 0.0941,-2.53795 0.0257,-3.29049 -0.42118,-4.6302 -0.29348,-0.87985 -0.61564,-2.64477 -0.71592,-3.92206 -0.10028,-1.27728 -0.28475,-2.38564 -0.40994,-2.46301 -0.12517,-0.0774 -0.2276,-0.52383 -0.2276,-0.99213 0,-0.56898 -0.25319,-1.12867 -0.76318,-1.68704 -0.66623,-0.72942 -0.74623,-0.98599 -0.62974,-2.01948 0.0944,-0.83728 0.008,-1.36305 -0.29515,-1.7958 -0.23942,-0.34182 -0.42859,-1.13236 -0.42859,-1.79102 0,-0.64852 -0.112,-1.54476 -0.24889,-1.99165 -0.13689,-0.4469 -0.73357,-2.36035 -1.32595,-4.25212 -0.59239,-1.89177 -1.07571,-3.57402 -1.07403,-3.73834 0.002,-0.16432 -0.29873,-0.95789 -0.66755,-1.7635 -0.36882,-0.80561 -0.83104,-2.21899 -1.02716,-3.14083 -0.38216,-1.79633 -2.41213,-6.30629 -2.83851,-6.30629 -0.14161,0 -0.18514,-0.11705 -0.0967,-0.26011 0.13504,-0.2185 -1.29292,-3.29167 -1.72269,-3.70747 -0.0759,-0.0734 -0.49974,-0.69922 -0.94193,-1.39071 -1.33176,-2.0826 -8.99841,-9.72296 -9.75641,-9.72296 -0.2075,0 -0.45205,-0.12101 -0.54346,-0.2689 -0.0914,-0.14789 -0.27702,-0.2004 -0.41249,-0.11668 -0.13546,0.0837 -0.2463,0.0344 -0.2463,-0.10951 0,-0.14396 -0.92273,-0.69201 -2.05052,-1.21789 -1.12778,-0.52589 -2.24422,-1.06183 -2.48097,-1.19099 -0.23674,-0.12916 -0.86182,-0.31576 -1.38906,-0.41467 -0.52724,-0.0989 -0.95861,-0.28565 -0.95861,-0.41497 0,-0.12933 -0.14116,-0.23514 -0.31368,-0.23514 -0.17252,0 -0.55947,-0.21985 -0.8599,-0.48855 -0.30042,-0.2687 -1.55825,-0.93499 -2.79517,-1.48064 -1.23693,-0.54566 -2.9038,-1.29448 -3.70417,-1.66404 -2.10454,-0.97177 -3.85769,-1.38714 -5.86975,-1.39071 -0.9728,-0.002 -2.08264,-0.1225 -2.46632,-0.26837 -0.38368,-0.14588 -1.86809,-0.27468 -3.2987,-0.28624 -4.2618,-0.0344 -5.96211,0.75267 -8.62151,3.99105 -0.29876,0.3638 -0.87219,0.89958 -1.27428,1.19062 -0.4021,0.29105 -1.16413,1.12448 -1.69339,1.85209 -0.52927,0.7276 -1.32949,1.76166 -1.77827,2.2979 -0.44878,0.53624 -1.08741,1.5185 -1.41918,2.18281 -0.33177,0.66431 -0.71393,1.20783 -0.84924,1.20783 -0.13532,0 -0.2494,0.14883 -0.25353,0.33073 -0.004,0.1819 -0.48706,0.86651 -1.07318,1.52135 -0.62742,0.70098 -2.09636,3.23116 -3.5719,6.15243 -2.22169,4.39847 -2.53548,5.1945 -2.76387,7.01146 -0.1417,1.12731 -0.53569,2.82356 -0.87554,3.76945 -0.5301,1.47543 -0.71798,1.73168 -1.32233,1.80351 -0.47627,0.0566 -0.70442,-0.04 -0.70442,-0.29833 0,-0.21013 -0.16859,-0.52197 -0.37463,-0.69297 -0.29967,-0.2487 -0.41014,-0.19901 -0.55211,0.24832 -0.0976,0.30757 -0.46855,0.69184 -0.82428,0.85392 -0.57758,0.26316 -0.72971,0.19773 -1.42175,-0.61144 -0.63835,-0.74639 -0.77293,-1.13936 -0.76339,-2.22905 0.006,-0.72761 -0.006,-1.50152 -0.0285,-1.7198 -0.0669,-0.66277 0.27638,-5.33231 0.5018,-6.82526 0.22727,-1.50528 -0.0127,-4.94005 -0.49085,-7.02704 -0.16189,-0.70652 -0.32707,-2.73058 -0.36707,-4.49791 -0.0423,-1.86925 -0.20614,-3.45675 -0.39169,-3.79529 -0.36218,-0.66082 -0.62573,-3.81767 -0.69138,-8.28158 -0.0246,-1.67349 -0.12697,-3.2213 -0.22745,-3.43958 -0.10047,-0.21829 -0.22792,-3.43297 -0.28322,-7.14375 -0.10018,-6.72359 -0.3333,-9.41273 -0.87493,-10.0928 -0.15692,-0.19704 -0.36498,-0.80055 -0.46236,-1.34115 -0.2095,-1.16314 -0.34645,-1.27117 -1.66487,-1.31334 -0.55287,-0.0177 -1.24006,-0.19287 -1.5271,-0.38931 -0.28704,-0.19644 -0.95226,-0.35716 -1.47826,-0.35716 -0.52601,0 -2.07709,-0.15947 -3.44686,-0.35439 -3.56868,-0.50781 -17.45025,-0.39424 -19.8207,0.16217 -0.94588,0.22203 -2.71376,0.58787 -3.92861,0.81299 -4.29246,0.79541 -9.42953,4.34849 -11.87859,8.21589 -0.56543,0.89289 -0.64896,1.31923 -0.62187,3.17386 0.0177,1.21185 -0.13257,2.66006 -0.34597,3.33418 -0.32936,1.04039 -0.89349,3.91789 -1.34888,6.88031 -0.30274,1.9694 -0.34995,5.79788 -0.10116,8.20208 0.14307,1.38245 0.30369,3.34698 0.35694,4.36562 0.0533,1.01865 0.17923,3.45943 0.27995,5.42396 0.10072,1.96453 0.1891,3.63141 0.19641,3.70417 0.007,0.0728 -0.0816,0.35034 -0.19757,0.61684 -0.21688,0.49836 -0.10115,2.08997 0.48065,6.61011 0.1887,1.46607 0.23294,2.65935 0.1016,2.74052 -0.25122,0.15526 -0.0786,1.99163 0.40602,4.32003 0.16659,0.80037 0.32794,2.82443 0.35854,4.49792 0.0306,1.67349 0.0869,3.39989 0.12509,3.83646 0.0382,0.43656 -0.006,1.13826 -0.098,1.55933 -0.32825,1.5008 -0.25944,8.3554 0.0881,8.77413 0.24331,0.29317 0.2926,1.4461 0.19104,4.46817 -0.10193,3.03293 -0.0415,4.43326 0.23649,5.48363 0.20536,0.77582 0.54444,4.02996 0.7535,7.23141 0.56795,8.69727 0.91007,12.02357 1.34329,13.06037 0.21476,0.514 0.33153,1.0882 0.25947,1.276 -0.072,0.1877 0.20246,1.087 0.61002,1.9983 0.40756,0.9114 0.82816,2.008 0.93466,2.437 0.25984,1.0467 3.22188,6.9439 4.01609,7.9957 0.38094,0.5045 0.97646,0.9113 1.49588,1.0218 1.32025,0.2809 3.91621,1.1937 5.09632,1.792 0.91277,0.4628 1.9477,0.772 3.57187,1.0671 0.21828,0.04 0.87313,0.2073 1.45521,0.3725 1.49537,0.4243 2.30671,0.5123 5.14059,0.5573 1.37212,0.022 2.91993,-0.093 3.43958,-0.2545 z m 96.85629,-31.33918 c 0,-0.22687 0.121,-0.33771 0.2689,-0.2463 0.14789,0.0914 0.20039,0.27702 0.11667,0.41249 -0.22681,0.36699 -0.38557,0.29856 -0.38557,-0.16619 z m -0.79369,-19.81253 c 0,-0.2097 0.11185,-0.45039 0.24857,-0.53489 0.13671,-0.0845 0.23044,0.0871 0.20828,0.38126 -0.0455,0.60419 -0.45685,0.74251 -0.45685,0.15363 z"
         id="path9-5" /></g></g></svg>
